HIERARCHY
ROOT Hips
{
  OFFSET -125.086 92.215 135.881
  CHANNELS 6 Xposition Yposition Zposition Zrotation Xrotation Yrotation
  JOINT LeftUpLeg
  {
    OFFSET 8.64259 1.95398 -2.38835
    CHANNELS 3 Zrotation Xrotation Yrotation
    JOINT LeftLeg
    {
      OFFSET 43.7702 0 0
      CHANNELS 3 Zrotation Xrotation Yrotation
      JOINT LeftFoot
      {
        OFFSET 40.6238 0 0
        CHANNELS 3 Zrotation Xrotation Yrotation
        JOINT LeftToeBase
        {
          OFFSET 12.7242 0 0
          CHANNELS 3 Zrotation Xrotation Yrotation
          End Site
          {
            OFFSET 0 0 0
          }
        }
      }
    }
  }
  JOINT RightUpLeg
  {
    OFFSET -8.2249 1.95398 -2.59336
    CHANNELS 3 Zrotation Xrotation Yrotation
    JOINT RightLeg
    {
      OFFSET 43.5653 0 0
      CHANNELS 3 Zrotation Xrotation Yrotation
      JOINT RightFoot
      {
        OFFSET 40.6238 0 0
        CHANNELS 3 Zrotation Xrotation Yrotation
        JOINT RightToeBase
        {
          OFFSET 12.7242 0 0
          CHANNELS 3 Zrotation Xrotation Yrotation
          End Site
          {
            OFFSET 0 0 0
          }
        }
      }
    }
  }
  JOINT Spine
  {
    OFFSET 0.165834 0.87714 6.61349
    CHANNELS 3 Zrotation Xrotation Yrotation
    JOINT Spine1
    {
      OFFSET 7.38963 1.71661e-005 0
      CHANNELS 3 Zrotation Xrotation Yrotation
      JOINT Spine2
      {
        OFFSET 11.9445 1.14441e-005 0
        CHANNELS 3 Zrotation Xrotation Yrotation
        JOINT Spine3
        {
          OFFSET 14.7254 4.19617e-005 0
          CHANNELS 3 Zrotation Xrotation Yrotation
          JOINT Spine4
          {
            OFFSET 10.9679 0 0
            CHANNELS 3 Zrotation Xrotation Yrotation
            JOINT RightShoulder
            {
              OFFSET 2.46616 -1.6653 3.69651
              CHANNELS 3 Zrotation Xrotation Yrotation
              JOINT RightArm
              {
                OFFSET 13.0012 0 0
                CHANNELS 3 Zrotation Xrotation Yrotation
                JOINT RightForeArm
                {
                  OFFSET 28.7848 1.52588e-005 0
                  CHANNELS 3 Zrotation Xrotation Yrotation
                  JOINT RightHand
                  {
                    OFFSET 26.5688 1.52588e-005 0
                    CHANNELS 3 Zrotation Xrotation Yrotation
                    End Site
                    {
                      OFFSET 0 0 0
                    }
                  }
                }
              }
            }
            JOINT LeftShoulder
            {
              OFFSET 2.38034 -1.29275 -3.7523
              CHANNELS 3 Zrotation Xrotation Yrotation
              JOINT LeftArm
              {
                OFFSET 16.3182 6.10352e-005 0
                CHANNELS 3 Zrotation Xrotation Yrotation
                JOINT LeftForeArm
                {
                  OFFSET 27.0901 0 0
                  CHANNELS 3 Zrotation Xrotation Yrotation
                  JOINT LeftHand
                  {
                    OFFSET 24.5451 1.52588e-005 0
                    CHANNELS 3 Zrotation Xrotation Yrotation
                    End Site
                    {
                      OFFSET 0 0 0
                    }
                  }
                }
              }
            }
            JOINT Neck
            {
              OFFSET 5.0226 -0.0266342 0
              CHANNELS 3 Zrotation Xrotation Yrotation
              JOINT Head
              {
                OFFSET 6.69363 2.86102e-005 0
                CHANNELS 3 Zrotation Xrotation Yrotation
                End Site
                {
                  OFFSET 0 0 0
                }
              }
            }
          }
        }
      }
    }
  }
}
MOTION
Frames:	9
Frame Time:	0.0416667
-7.13643 96.7162 1.27543 121.152 -86.2309 121.26 -174.49 2.55018 91.4918 -14.3196 6.34684 3.07646 65.5485 5.57981 -1.72174 32.702 -0.645955 3.81914 174.716 2.47158 88.0676 -15.1935 -2.95812 -0.322592 66.8632 -5.27214 1.74169 31.7015 -0.288672 -2.31586 -0.117784 7.10628 -90.2533 12.6604 -0.354843 -0.464495 0.989404 -0.374947 -0.448441 -21.5452 -0.198853 -0.549666 -1.5326 -0.198845 -0.549674 109.491 -53.5866 -71.2479 24.6551 -9.22123 -26.6648 3.8519 -33.0503 -13.6818 -10.9156 -0.344464 -1.5809 -72.7904 -51.6542 104.409 -43.1355 0.411783 -35.2046 0.523161 62.3309 0.364782 -2.601 -0.0761617 -10.7147 9.36818 -0.321572 7.1683 -18.8222 -1.44444 -3.48162 
-7.16387 96.6979 1.26733 118.726 -85.8789 118.848 -174.519 2.67351 91.5254 -14.4873 6.80563 3.12307 65.4785 5.5478 -1.6277 32.9654 -0.64732 3.65729 174.668 2.33872 88.0902 -15.0836 -2.6784 -0.252694 66.8408 -5.28335 1.66731 31.8732 -0.300563 -2.57674 -0.1279 7.13479 -90.2599 12.6033 -0.377966 -0.475162 0.932311 -0.398514 -0.458065 -21.6023 -0.217687 -0.566781 -1.58968 -0.217693 -0.566786 109.362 -53.2841 -71.3984 25.6333 -7.07262 -23.9388 4.34731 -33.288 -11.3465 -10.472 -0.361937 -1.21244 -72.7589 -51.569 104.463 -43.7953 -2.93522 -33.7961 3.88 63.1939 0.0105816 -1.80898 -0.122432 -10.7955 9.47829 -0.200156 7.02853 -18.9148 -1.37409 -2.91119 
-7.16 96.6999 1.26285 113.19 -85.6425 113.262 -174.597 2.8914 91.4751 -14.3071 6.97616 3.1323 65.4905 5.5893 -1.74316 32.5882 -0.606279 3.40056 174.636 2.62892 88.0784 -15.1619 -2.50713 -0.193744 66.728 -5.24088 1.36019 31.907 -0.333195 -2.20184 -0.139398 7.16876 -90.2487 12.5354 -0.395375 -0.450961 0.864429 -0.414835 -0.433133 -21.6703 -0.241564 -0.548943 -1.65766 -0.241563 -0.548941 110.003 -53.7002 -70.5031 25.5435 -5.1043 -21.0763 4.32621 -34.6346 -9.40631 -10.0796 -0.288842 -1.93243 -72.6373 -51.4831 104.652 -44.6909 -7.24499 -32.5294 7.26691 69.2689 0.0191624 -2.67216 -0.0762327 -9.83657 10.0708 -0.252668 7.16984 -18.9705 -1.4295 -3.38462 
-7.2132 96.6887 1.33369 111.828 -85.6774 111.979 -174.686 2.92424 91.4914 -14.2638 7.36449 3.24564 65.336 5.59224 -1.27695 33.1007 -0.660743 3.73401 174.745 2.7621 88.2235 -15.2803 -2.56096 -0.200242 66.5338 -5.15287 1.0793 32.6423 -0.460048 -2.24541 -0.133471 7.21699 -90.2745 12.4388 -0.395704 -0.502791 0.767785 -0.417451 -0.484899 -21.7668 -0.226311 -0.598469 -1.75413 -0.226297 -0.598467 110.027 -53.5337 -70.4437 25.4015 -3.88131 -17.2212 4.44171 -33.1269 -8.53084 -9.85524 -0.317358 -1.51933 -72.7969 -51.2611 104.433 -42.7509 -9.27368 -29.644 6.9947 69.999 0.0243675 -2.51498 -0.0812123 -10.8481 10.3581 -0.20107 7.2083 -19.1415 -1.46032 -2.94087 
-7.21334 96.6862 1.35047 110.92 -85.5673 111.095 -174.638 3.04487 91.5589 -14.4166 7.3676 3.21833 65.4206 5.59016 -1.45402 33.0737 -0.662566 3.77432 174.815 2.50623 88.2754 -14.8785 -2.17106 -0.282343 66.883 -5.29694 1.52822 31.7537 -0.296207 -2.32049 -0.129222 7.27247 -90.2917 12.3277 -0.395163 -0.537594 0.656698 -0.418439 -0.519693 -21.8777 -0.215329 -0.631505 -1.86509 -0.215335 -0.63151 110.389 -53.7022 -69.9304 24.8969 -2.08637 -13.3713 4.43797 -32.8724 -7.4859 -9.14041 -0.252484 -2.04697 -72.6635 -51.2309 104.635 -41.1834 -11.2783 -26.6145 6.5804 70.7667 0.0287259 -3.28101 -0.0704162 -8.89613 10.0937 -0.22209 7.17589 -18.3861 -1.50634 -2.71303 
-7.17456 96.6898 1.32162 111.584 -85.7373 111.504 -174.718 2.9637 91.2848 -14.2776 7.30688 3.10228 65.2327 5.53697 -1.15775 33.0459 -0.639795 3.50595 174.615 2.98691 87.9449 -15.5874 -2.67367 -0.201047 66.6752 -5.20794 0.992476 32.6837 -0.484404 -1.93523 -0.120901 7.32655 -90.2687 12.2198 -0.367554 -0.495305 0.548782 -0.389003 -0.478645 -21.9858 -0.201707 -0.582872 -1.97312 -0.201711 -0.582871 110.61 -53.7723 -69.6138 24.3543 -1.24194 -9.4877 4.56689 -31.4713 -7.44942 -9.69798 -0.353449 -0.990049 -72.2924 -51.2074 105.192 -39.7845 -12.8221 -23.1417 6.16791 70.3553 0.0303527 -6.10572 0.112292 -10.2034 10.2562 -0.18264 7.54724 -18.2257 -1.49639 -3.26648 
-7.14276 96.6759 1.43128 108.187 -85.5569 108.22 -174.763 2.98411 91.3628 -14.03 7.00078 3.19216 65.5581 5.67098 -1.70426 32.5607 -0.61012 3.46571 174.655 2.75001 88.0436 -15.0313 -2.13972 -0.191251 66.9048 -5.2394 1.56823 31.8726 -0.327614 -2.19538 -0.142135 7.36614 -90.2896 12.1403 -0.419466 -0.531402 0.469347 -0.442442 -0.512432 -22.0652 -0.240368 -0.632893 -2.05251 -0.240364 -0.6329 110.843 -53.613 -69.2447 24.4122 -0.105004 -6.19237 4.16347 -30.9454 -7.28451 -9.81418 -0.377532 -0.739216 -71.9865 -51.0803 105.662 -38.5549 -13.2293 -19.6969 5.15285 66.8666 0.0269686 -4.34569 0.014322 -10.4525 11.2355 -0.18571 7.22297 -19.0038 -1.49789 -3.01582 
-7.14829 96.6957 1.44096 108.982 -85.7401 109.014 -174.638 3.09068 91.4343 -14.2728 6.81144 3.08401 65.5883 5.57063 -2.03642 32.6411 -0.634575 3.71214 174.647 2.9531 88.0612 -15.2959 -2.78993 -0.150705 66.4606 -5.15914 0.765431 32.9121 -0.518652 -2.05991 -0.149572 7.39844 -90.2765 12.0758 -0.427895 -0.504742 0.404786 -0.449696 -0.485428 -22.1298 -0.25643 -0.610003 -2.11718 -0.25642 -0.61 110.742 -53.5321 -69.3812 24.2526 0.714792 -3.94864 4.55839 -31.6054 -5.96879 -9.3773 -0.338887 -1.05581 -71.703 -50.9134 106.104 -37.478 -13.2175 -16.7198 4.01695 64.7402 0.0250102 -4.01455 -0.00550962 -10.2981 11.0471 -0.187797 7.01166 -18.4057 -1.51779 -2.52104 
-7.14743 96.7007 1.38465 111.124 -85.855 111.13 -174.66 2.8919 91.3721 -14.0928 6.67049 3.09904 65.53 5.6078 -1.81335 32.5904 -0.617545 3.53664 174.68 2.82606 88.0207 -15.1868 -2.62594 -0.233901 66.6032 -5.1326 1.37617 32.463 -0.433519 -2.13757 -0.126507 7.42258 -90.2586 12.0278 -0.373525 -0.475123 0.356793 -0.394074 -0.458231 -22.1778 -0.213468 -0.565417 -2.16519 -0.213467 -0.565421 110.818 -53.6845 -69.2925 23.8863 1.0122 -2.13435 4.55973 -31.4643 -5.71359 -8.46092 -0.226088 -2.17244 -71.5919 -50.9216 106.27 -37.3037 -13.2761 -15.1687 3.72168 61.3922 0.0218714 -3.7691 -0.0165428 -10.4343 10.7967 -0.206699 6.85738 -17.9684 -1.49516 -2.50746 
